<mxfile host="app.diagrams.net" agent="Mozilla/5.0 (Windows NT 10.0; Win64; x64) AppleWebKit/537.36 (KHTML, like Gecko) Chrome/135.0.0.0 Safari/537.36" version="26.2.14">
  <diagram name="P치gina-1" id="7quJ1rfg4dVmprfxJ5QW">
    <mxGraphModel dx="1426" dy="725" grid="1" gridSize="12" guides="1" tooltips="1" connect="1" arrows="1" fold="1" page="1" pageScale="1" pageWidth="827" pageHeight="1169" math="0" shadow="0">
      <root>
        <mxCell id="0" />
        <mxCell id="1" parent="0" />
        <mxCell id="jkts2Dll8OOPiXamHGdO-5" style="edgeStyle=orthogonalEdgeStyle;rounded=0;orthogonalLoop=1;jettySize=auto;html=1;exitX=0;exitY=0;exitDx=0;exitDy=0;entryX=0.5;entryY=1;entryDx=0;entryDy=0;" edge="1" parent="1" source="jkts2Dll8OOPiXamHGdO-1" target="jkts2Dll8OOPiXamHGdO-2">
          <mxGeometry relative="1" as="geometry" />
        </mxCell>
        <mxCell id="jkts2Dll8OOPiXamHGdO-6" style="edgeStyle=orthogonalEdgeStyle;rounded=0;orthogonalLoop=1;jettySize=auto;html=1;exitX=0.5;exitY=0;exitDx=0;exitDy=0;" edge="1" parent="1" source="jkts2Dll8OOPiXamHGdO-1" target="jkts2Dll8OOPiXamHGdO-3">
          <mxGeometry relative="1" as="geometry" />
        </mxCell>
        <mxCell id="jkts2Dll8OOPiXamHGdO-7" style="edgeStyle=orthogonalEdgeStyle;rounded=0;orthogonalLoop=1;jettySize=auto;html=1;exitX=1;exitY=0;exitDx=0;exitDy=0;entryX=0.5;entryY=1;entryDx=0;entryDy=0;" edge="1" parent="1" source="jkts2Dll8OOPiXamHGdO-1" target="jkts2Dll8OOPiXamHGdO-4">
          <mxGeometry relative="1" as="geometry" />
        </mxCell>
        <mxCell id="jkts2Dll8OOPiXamHGdO-61" style="edgeStyle=orthogonalEdgeStyle;rounded=0;orthogonalLoop=1;jettySize=auto;html=1;exitX=1;exitY=0.5;exitDx=0;exitDy=0;" edge="1" parent="1" source="jkts2Dll8OOPiXamHGdO-1" target="jkts2Dll8OOPiXamHGdO-62">
          <mxGeometry relative="1" as="geometry">
            <mxPoint x="384" y="132" as="targetPoint" />
          </mxGeometry>
        </mxCell>
        <mxCell id="jkts2Dll8OOPiXamHGdO-74" style="edgeStyle=orthogonalEdgeStyle;rounded=0;orthogonalLoop=1;jettySize=auto;html=1;exitX=0.5;exitY=1;exitDx=0;exitDy=0;entryX=0;entryY=0.5;entryDx=0;entryDy=0;fillColor=#60a917;strokeColor=#2D7600;" edge="1" parent="1" source="jkts2Dll8OOPiXamHGdO-1" target="jkts2Dll8OOPiXamHGdO-64">
          <mxGeometry relative="1" as="geometry" />
        </mxCell>
        <mxCell id="jkts2Dll8OOPiXamHGdO-87" style="edgeStyle=orthogonalEdgeStyle;rounded=0;orthogonalLoop=1;jettySize=auto;html=1;exitX=1;exitY=0;exitDx=0;exitDy=0;entryX=0.5;entryY=0;entryDx=0;entryDy=0;fillColor=#76608a;strokeColor=#432D57;" edge="1" parent="1" source="jkts2Dll8OOPiXamHGdO-1" target="jkts2Dll8OOPiXamHGdO-82">
          <mxGeometry relative="1" as="geometry" />
        </mxCell>
        <mxCell id="jkts2Dll8OOPiXamHGdO-1" value="soldados" style="ellipse;whiteSpace=wrap;html=1;aspect=fixed;" vertex="1" parent="1">
          <mxGeometry x="140" y="150" width="100" height="100" as="geometry" />
        </mxCell>
        <mxCell id="jkts2Dll8OOPiXamHGdO-2" value="nombre" style="ellipse;whiteSpace=wrap;html=1;aspect=fixed;" vertex="1" parent="1">
          <mxGeometry x="40" y="40" width="80" height="80" as="geometry" />
        </mxCell>
        <mxCell id="jkts2Dll8OOPiXamHGdO-3" value="grado" style="ellipse;whiteSpace=wrap;html=1;aspect=fixed;" vertex="1" parent="1">
          <mxGeometry x="150" y="40" width="80" height="80" as="geometry" />
        </mxCell>
        <mxCell id="jkts2Dll8OOPiXamHGdO-4" value="apellido" style="ellipse;whiteSpace=wrap;html=1;aspect=fixed;" vertex="1" parent="1">
          <mxGeometry x="260" y="40" width="80" height="80" as="geometry" />
        </mxCell>
        <mxCell id="jkts2Dll8OOPiXamHGdO-13" style="edgeStyle=orthogonalEdgeStyle;rounded=0;orthogonalLoop=1;jettySize=auto;html=1;exitX=0.5;exitY=0;exitDx=0;exitDy=0;" edge="1" parent="1" source="jkts2Dll8OOPiXamHGdO-8" target="jkts2Dll8OOPiXamHGdO-10">
          <mxGeometry relative="1" as="geometry" />
        </mxCell>
        <mxCell id="jkts2Dll8OOPiXamHGdO-15" style="edgeStyle=orthogonalEdgeStyle;rounded=0;orthogonalLoop=1;jettySize=auto;html=1;exitX=1;exitY=0.5;exitDx=0;exitDy=0;entryX=0.5;entryY=1;entryDx=0;entryDy=0;" edge="1" parent="1" source="jkts2Dll8OOPiXamHGdO-8" target="jkts2Dll8OOPiXamHGdO-11">
          <mxGeometry relative="1" as="geometry" />
        </mxCell>
        <mxCell id="jkts2Dll8OOPiXamHGdO-8" value="cuarteles" style="ellipse;whiteSpace=wrap;html=1;aspect=fixed;" vertex="1" parent="1">
          <mxGeometry x="560" y="150" width="100" height="100" as="geometry" />
        </mxCell>
        <mxCell id="jkts2Dll8OOPiXamHGdO-9" value="codigo de cuartel" style="ellipse;whiteSpace=wrap;html=1;aspect=fixed;" vertex="1" parent="1">
          <mxGeometry x="450" y="40" width="80" height="80" as="geometry" />
        </mxCell>
        <mxCell id="jkts2Dll8OOPiXamHGdO-10" value="ubicaci칩n" style="ellipse;whiteSpace=wrap;html=1;aspect=fixed;" vertex="1" parent="1">
          <mxGeometry x="570" y="40" width="80" height="80" as="geometry" />
        </mxCell>
        <mxCell id="jkts2Dll8OOPiXamHGdO-11" value="nombre" style="ellipse;whiteSpace=wrap;html=1;aspect=fixed;" vertex="1" parent="1">
          <mxGeometry x="700" y="40" width="80" height="80" as="geometry" />
        </mxCell>
        <mxCell id="jkts2Dll8OOPiXamHGdO-14" style="edgeStyle=orthogonalEdgeStyle;rounded=0;orthogonalLoop=1;jettySize=auto;html=1;exitX=0;exitY=0.5;exitDx=0;exitDy=0;entryX=0.375;entryY=1;entryDx=0;entryDy=0;entryPerimeter=0;" edge="1" parent="1" source="jkts2Dll8OOPiXamHGdO-8" target="jkts2Dll8OOPiXamHGdO-9">
          <mxGeometry relative="1" as="geometry" />
        </mxCell>
        <mxCell id="jkts2Dll8OOPiXamHGdO-33" style="edgeStyle=orthogonalEdgeStyle;rounded=0;orthogonalLoop=1;jettySize=auto;html=1;exitX=0;exitY=0.5;exitDx=0;exitDy=0;entryX=0.5;entryY=1;entryDx=0;entryDy=0;" edge="1" parent="1" source="jkts2Dll8OOPiXamHGdO-31" target="jkts2Dll8OOPiXamHGdO-32">
          <mxGeometry relative="1" as="geometry" />
        </mxCell>
        <mxCell id="jkts2Dll8OOPiXamHGdO-35" style="edgeStyle=orthogonalEdgeStyle;rounded=0;orthogonalLoop=1;jettySize=auto;html=1;exitX=1;exitY=0.5;exitDx=0;exitDy=0;entryX=0.5;entryY=1;entryDx=0;entryDy=0;" edge="1" parent="1" source="jkts2Dll8OOPiXamHGdO-31" target="jkts2Dll8OOPiXamHGdO-34">
          <mxGeometry relative="1" as="geometry" />
        </mxCell>
        <mxCell id="jkts2Dll8OOPiXamHGdO-67" style="edgeStyle=orthogonalEdgeStyle;rounded=0;orthogonalLoop=1;jettySize=auto;html=1;exitX=0.5;exitY=0;exitDx=0;exitDy=0;entryX=1;entryY=1;entryDx=0;entryDy=0;fillColor=#a20025;strokeColor=#6F0000;" edge="1" parent="1" source="jkts2Dll8OOPiXamHGdO-68" target="jkts2Dll8OOPiXamHGdO-8">
          <mxGeometry relative="1" as="geometry" />
        </mxCell>
        <mxCell id="jkts2Dll8OOPiXamHGdO-31" value="compa침ia" style="ellipse;whiteSpace=wrap;html=1;" vertex="1" parent="1">
          <mxGeometry x="570" y="520" width="120" height="80" as="geometry" />
        </mxCell>
        <mxCell id="jkts2Dll8OOPiXamHGdO-32" value="numero de compa침ia" style="ellipse;whiteSpace=wrap;html=1;aspect=fixed;" vertex="1" parent="1">
          <mxGeometry x="480" y="440" width="80" height="80" as="geometry" />
        </mxCell>
        <mxCell id="jkts2Dll8OOPiXamHGdO-34" value="denominacion" style="ellipse;whiteSpace=wrap;html=1;aspect=fixed;" vertex="1" parent="1">
          <mxGeometry x="700" y="430" width="80" height="80" as="geometry" />
        </mxCell>
        <mxCell id="jkts2Dll8OOPiXamHGdO-36" value="actividad principal que realizan" style="ellipse;whiteSpace=wrap;html=1;aspect=fixed;" vertex="1" parent="1">
          <mxGeometry x="600" y="660" width="80" height="80" as="geometry" />
        </mxCell>
        <mxCell id="jkts2Dll8OOPiXamHGdO-37" style="edgeStyle=orthogonalEdgeStyle;rounded=0;orthogonalLoop=1;jettySize=auto;html=1;exitX=0.5;exitY=1;exitDx=0;exitDy=0;entryX=0.588;entryY=0.038;entryDx=0;entryDy=0;entryPerimeter=0;" edge="1" parent="1" source="jkts2Dll8OOPiXamHGdO-31" target="jkts2Dll8OOPiXamHGdO-36">
          <mxGeometry relative="1" as="geometry" />
        </mxCell>
        <mxCell id="jkts2Dll8OOPiXamHGdO-44" style="edgeStyle=orthogonalEdgeStyle;rounded=0;orthogonalLoop=1;jettySize=auto;html=1;exitX=1;exitY=0.5;exitDx=0;exitDy=0;entryX=0;entryY=0.5;entryDx=0;entryDy=0;" edge="1" parent="1" source="jkts2Dll8OOPiXamHGdO-38" target="jkts2Dll8OOPiXamHGdO-43">
          <mxGeometry relative="1" as="geometry" />
        </mxCell>
        <mxCell id="jkts2Dll8OOPiXamHGdO-46" style="edgeStyle=orthogonalEdgeStyle;rounded=0;orthogonalLoop=1;jettySize=auto;html=1;exitX=0.5;exitY=0;exitDx=0;exitDy=0;entryX=0;entryY=0.5;entryDx=0;entryDy=0;" edge="1" parent="1" source="jkts2Dll8OOPiXamHGdO-38" target="jkts2Dll8OOPiXamHGdO-45">
          <mxGeometry relative="1" as="geometry" />
        </mxCell>
        <mxCell id="jkts2Dll8OOPiXamHGdO-72" style="edgeStyle=orthogonalEdgeStyle;rounded=0;orthogonalLoop=1;jettySize=auto;html=1;exitX=1;exitY=0;exitDx=0;exitDy=0;entryX=1;entryY=1;entryDx=0;entryDy=0;fillColor=#e3c800;strokeColor=#B09500;" edge="1" parent="1" source="jkts2Dll8OOPiXamHGdO-38" target="jkts2Dll8OOPiXamHGdO-1">
          <mxGeometry relative="1" as="geometry">
            <Array as="points">
              <mxPoint x="264" y="752" />
              <mxPoint x="264" y="235" />
            </Array>
          </mxGeometry>
        </mxCell>
        <mxCell id="jkts2Dll8OOPiXamHGdO-38" value="servicio" style="ellipse;whiteSpace=wrap;html=1;aspect=fixed;" vertex="1" parent="1">
          <mxGeometry y="740" width="80" height="80" as="geometry" />
        </mxCell>
        <mxCell id="jkts2Dll8OOPiXamHGdO-43" value="codigo de servicio" style="ellipse;whiteSpace=wrap;html=1;aspect=fixed;" vertex="1" parent="1">
          <mxGeometry x="150" y="768" width="80" height="80" as="geometry" />
        </mxCell>
        <mxCell id="jkts2Dll8OOPiXamHGdO-45" value="actividad" style="ellipse;whiteSpace=wrap;html=1;aspect=fixed;" vertex="1" parent="1">
          <mxGeometry x="140" y="640" width="80" height="80" as="geometry" />
        </mxCell>
        <mxCell id="jkts2Dll8OOPiXamHGdO-54" style="edgeStyle=orthogonalEdgeStyle;rounded=0;orthogonalLoop=1;jettySize=auto;html=1;exitX=1;exitY=0;exitDx=0;exitDy=0;" edge="1" parent="1" source="jkts2Dll8OOPiXamHGdO-47" target="jkts2Dll8OOPiXamHGdO-55">
          <mxGeometry relative="1" as="geometry">
            <mxPoint x="120" y="456" as="targetPoint" />
          </mxGeometry>
        </mxCell>
        <mxCell id="jkts2Dll8OOPiXamHGdO-58" style="edgeStyle=orthogonalEdgeStyle;rounded=0;orthogonalLoop=1;jettySize=auto;html=1;exitX=0.5;exitY=1;exitDx=0;exitDy=0;entryX=0;entryY=0.5;entryDx=0;entryDy=0;" edge="1" parent="1" source="jkts2Dll8OOPiXamHGdO-47" target="jkts2Dll8OOPiXamHGdO-57">
          <mxGeometry relative="1" as="geometry" />
        </mxCell>
        <mxCell id="jkts2Dll8OOPiXamHGdO-63" style="edgeStyle=orthogonalEdgeStyle;rounded=0;orthogonalLoop=1;jettySize=auto;html=1;exitX=0.5;exitY=0;exitDx=0;exitDy=0;fillColor=#60a917;strokeColor=#2D7600;" edge="1" parent="1" source="jkts2Dll8OOPiXamHGdO-64" target="jkts2Dll8OOPiXamHGdO-31">
          <mxGeometry relative="1" as="geometry" />
        </mxCell>
        <mxCell id="jkts2Dll8OOPiXamHGdO-47" value="cuerpos del ejercito" style="ellipse;whiteSpace=wrap;html=1;aspect=fixed;" vertex="1" parent="1">
          <mxGeometry x="12" y="396" width="80" height="80" as="geometry" />
        </mxCell>
        <mxCell id="jkts2Dll8OOPiXamHGdO-55" value="codigo de cuerpo&amp;nbsp;" style="ellipse;whiteSpace=wrap;html=1;aspect=fixed;" vertex="1" parent="1">
          <mxGeometry x="120" y="384" width="80" height="80" as="geometry" />
        </mxCell>
        <mxCell id="jkts2Dll8OOPiXamHGdO-57" value="denominacion" style="ellipse;whiteSpace=wrap;html=1;aspect=fixed;" vertex="1" parent="1">
          <mxGeometry x="108" y="476" width="80" height="80" as="geometry" />
        </mxCell>
        <mxCell id="jkts2Dll8OOPiXamHGdO-62" value="codigo" style="ellipse;whiteSpace=wrap;html=1;aspect=fixed;" vertex="1" parent="1">
          <mxGeometry x="276" y="160" width="80" height="80" as="geometry" />
        </mxCell>
        <mxCell id="jkts2Dll8OOPiXamHGdO-64" value="1&lt;div&gt;-&lt;br&gt;&lt;div&gt;v&lt;/div&gt;&lt;/div&gt;" style="rhombus;whiteSpace=wrap;html=1;" vertex="1" parent="1">
          <mxGeometry x="288" y="335" width="80" height="80" as="geometry" />
        </mxCell>
        <mxCell id="jkts2Dll8OOPiXamHGdO-69" value="" style="edgeStyle=orthogonalEdgeStyle;rounded=0;orthogonalLoop=1;jettySize=auto;html=1;exitX=1;exitY=0;exitDx=0;exitDy=0;entryX=0.5;entryY=1;entryDx=0;entryDy=0;fillColor=#a20025;strokeColor=#6F0000;" edge="1" parent="1" source="jkts2Dll8OOPiXamHGdO-31" target="jkts2Dll8OOPiXamHGdO-68">
          <mxGeometry relative="1" as="geometry">
            <mxPoint x="672" y="532" as="sourcePoint" />
            <mxPoint x="645" y="235" as="targetPoint" />
          </mxGeometry>
        </mxCell>
        <mxCell id="jkts2Dll8OOPiXamHGdO-68" value="&amp;nbsp;v&lt;div&gt;-&lt;/div&gt;&lt;div&gt;v&lt;/div&gt;" style="rhombus;whiteSpace=wrap;html=1;" vertex="1" parent="1">
          <mxGeometry x="650" y="358" width="56" height="72" as="geometry" />
        </mxCell>
        <mxCell id="jkts2Dll8OOPiXamHGdO-73" value="v&lt;br&gt;&lt;div&gt;-&lt;/div&gt;&lt;div&gt;&amp;nbsp;1&lt;/div&gt;" style="rhombus;whiteSpace=wrap;html=1;" vertex="1" parent="1">
          <mxGeometry x="220" y="464" width="80" height="80" as="geometry" />
        </mxCell>
        <mxCell id="jkts2Dll8OOPiXamHGdO-79" style="edgeStyle=orthogonalEdgeStyle;rounded=0;orthogonalLoop=1;jettySize=auto;html=1;exitX=0.5;exitY=0;exitDx=0;exitDy=0;entryX=0.18;entryY=0.92;entryDx=0;entryDy=0;entryPerimeter=0;fillColor=#a0522d;strokeColor=#6D1F00;" edge="1" parent="1" source="jkts2Dll8OOPiXamHGdO-80" target="jkts2Dll8OOPiXamHGdO-1">
          <mxGeometry relative="1" as="geometry" />
        </mxCell>
        <mxCell id="jkts2Dll8OOPiXamHGdO-81" value="" style="edgeStyle=orthogonalEdgeStyle;rounded=0;orthogonalLoop=1;jettySize=auto;html=1;exitX=0.5;exitY=0;exitDx=0;exitDy=0;entryX=0.5;entryY=1;entryDx=0;entryDy=0;fillColor=#a0522d;strokeColor=#6D1F00;" edge="1" parent="1" source="jkts2Dll8OOPiXamHGdO-47" target="jkts2Dll8OOPiXamHGdO-80">
          <mxGeometry relative="1" as="geometry">
            <mxPoint x="52" y="396" as="sourcePoint" />
            <mxPoint x="158" y="242" as="targetPoint" />
          </mxGeometry>
        </mxCell>
        <mxCell id="jkts2Dll8OOPiXamHGdO-80" value="v&lt;div&gt;-&lt;/div&gt;&lt;div&gt;1&lt;/div&gt;" style="rhombus;whiteSpace=wrap;html=1;" vertex="1" parent="1">
          <mxGeometry x="80" y="278" width="80" height="80" as="geometry" />
        </mxCell>
        <mxCell id="jkts2Dll8OOPiXamHGdO-85" style="edgeStyle=orthogonalEdgeStyle;rounded=0;orthogonalLoop=1;jettySize=auto;html=1;exitX=1;exitY=0;exitDx=0;exitDy=0;entryX=0;entryY=0.5;entryDx=0;entryDy=0;" edge="1" parent="1" source="jkts2Dll8OOPiXamHGdO-82" target="jkts2Dll8OOPiXamHGdO-83">
          <mxGeometry relative="1" as="geometry" />
        </mxCell>
        <mxCell id="jkts2Dll8OOPiXamHGdO-86" style="edgeStyle=orthogonalEdgeStyle;rounded=0;orthogonalLoop=1;jettySize=auto;html=1;exitX=1;exitY=0.5;exitDx=0;exitDy=0;entryX=0;entryY=0.5;entryDx=0;entryDy=0;" edge="1" parent="1" source="jkts2Dll8OOPiXamHGdO-82" target="jkts2Dll8OOPiXamHGdO-84">
          <mxGeometry relative="1" as="geometry" />
        </mxCell>
        <mxCell id="jkts2Dll8OOPiXamHGdO-82" value="soldado-servicio" style="ellipse;whiteSpace=wrap;html=1;" vertex="1" parent="1">
          <mxGeometry x="340" y="684" width="120" height="80" as="geometry" />
        </mxCell>
        <mxCell id="jkts2Dll8OOPiXamHGdO-83" value="cod:soldaso" style="ellipse;whiteSpace=wrap;html=1;" vertex="1" parent="1">
          <mxGeometry x="460" y="636" width="80" height="60" as="geometry" />
        </mxCell>
        <mxCell id="jkts2Dll8OOPiXamHGdO-84" value="cod:servicio" style="ellipse;whiteSpace=wrap;html=1;" vertex="1" parent="1">
          <mxGeometry x="472" y="704" width="80" height="60" as="geometry" />
        </mxCell>
        <mxCell id="jkts2Dll8OOPiXamHGdO-88" value="v&lt;div&gt;-&lt;/div&gt;&lt;div&gt;v&lt;/div&gt;" style="rhombus;whiteSpace=wrap;html=1;" vertex="1" parent="1">
          <mxGeometry x="360" y="384" width="80" height="80" as="geometry" />
        </mxCell>
      </root>
    </mxGraphModel>
  </diagram>
</mxfile>
